{
  "accessors": [
    {
      "bufferView": 2,
      "componentType": 5126,
      "count": 4759,
      "max": [
        32.43437957763672,
        11.18574047088623,
        179.19606018066406
      ],
      "min": [
        -32.43437957763672,
        -16.468111038208008,
        -0.3892329931259155
      ],
      "type": "VEC3"
    },
    {
      "bufferView": 2,
      "byteOffset": 57108,
      "componentType": 5126,
      "count": 4759,
      "max": [
        0.9999008774757385,
        0.9998809099197388,
        0.9989124536514282
      ],
      "min": [
        -0.9999008774757385,
        -0.9997247457504272,
        -0.9999746680259705
      ],
      "type": "VEC3"
    },
    {
      "bufferView": 1,
      "componentType": 5126,
      "count": 4759,
      "max": [
        0.9889219999313354,
        0.9866189956665039
      ],
      "min": [
        0.01107800006866455,
        0.01687600091099739
      ],
      "type": "VEC2"
    },
    {
      "bufferView": 0,
      "componentType": 5125,
      "count": 24696,
      "type": "SCALAR"
    },
    {
      "bufferView": 2,
      "byteOffset": 114216,
      "componentType": 5126,
      "count": 65532,
      "max": [
        16.670026779174805,
        14.144323348999023,
        154.40481567382813
      ],
      "min": [
        -26.504493713378906,
        -9.103419303894043,
        90.93658447265625
      ],
      "type": "VEC3"
    },
    {
      "bufferView": 2,
      "byteOffset": 900600,
      "componentType": 5126,
      "count": 65532,
      "max": [
        0.999975860118866,
        0.999991238117218,
        0.9999625086784363
      ],
      "min": [
        -0.9999702572822571,
        -0.9999935030937195,
        -0.9984073638916016
      ],
      "type": "VEC3"
    },
    {
      "bufferView": 3,
      "componentType": 5126,
      "count": 65532,
      "max": [
        0.9999175071716309,
        0.9988548159599304,
        0.9999929070472717,
        1.0
      ],
      "min": [
        -0.9998742938041687,
        -0.9995349645614624,
        -0.9999992251396179,
        -1.0
      ],
      "type": "VEC4"
    },
    {
      "bufferView": 1,
      "byteOffset": 38072,
      "componentType": 5126,
      "count": 65532,
      "max": [
        0.9944499731063843,
        0.9955800175666809
      ],
      "min": [
        0.003759999992325902,
        0.0019499999471008778
      ],
      "type": "VEC2"
    },
    {
      "bufferView": 0,
      "byteOffset": 98784,
      "componentType": 5125,
      "count": 368736,
      "type": "SCALAR"
    },
    {
      "bufferView": 2,
      "byteOffset": 1686984,
      "componentType": 5126,
      "count": 65532,
      "max": [
        26.076040267944336,
        14.122389793395996,
        153.34918212890625
      ],
      "min": [
        -17.197599411010742,
        -17.4814395904541,
        90.92821502685547
      ],
      "type": "VEC3"
    },
    {
      "bufferView": 2,
      "byteOffset": 2473368,
      "componentType": 5126,
      "count": 65532,
      "max": [
        0.9999984502792358,
        0.9999969005584717,
        0.9961645007133484
      ],
      "min": [
        -0.9999946355819702,
        -0.9999978542327881,
        -0.9389054775238037
      ],
      "type": "VEC3"
    },
    {
      "bufferView": 3,
      "byteOffset": 1048512,
      "componentType": 5126,
      "count": 65532,
      "max": [
        0.9998151063919067,
        0.9999813437461853,
        1.0,
        1.0
      ],
      "min": [
        -0.9998744130134583,
        -0.9999991655349731,
        -0.9999855756759644,
        -1.0
      ],
      "type": "VEC4"
    },
    {
      "bufferView": 1,
      "byteOffset": 562328,
      "componentType": 5126,
      "count": 65532,
      "max": [
        0.9980400204658508,
        0.9979400038719177
      ],
      "min": [
        0.0019499999471008778,
        0.0019499999471008778
      ],
      "type": "VEC2"
    },
    {
      "bufferView": 0,
      "byteOffset": 1573728,
      "componentType": 5125,
      "count": 346905,
      "type": "SCALAR"
    },
    {
      "bufferView": 2,
      "byteOffset": 3259752,
      "componentType": 5126,
      "count": 36558,
      "max": [
        26.076040267944336,
        14.122389793395996,
        154.38021850585938
      ],
      "min": [
        -25.169921875,
        -17.47276496887207,
        90.9134750366211
      ],
      "type": "VEC3"
    },
    {
      "bufferView": 2,
      "byteOffset": 3698448,
      "componentType": 5126,
      "count": 36558,
      "max": [
        0.9999629855155945,
        0.9999967813491821,
        0.9999786615371704
      ],
      "min": [
        -0.999987006187439,
        -0.9999753832817078,
        -0.9999954700469971
      ],
      "type": "VEC3"
    },
    {
      "bufferView": 3,
      "byteOffset": 2097024,
      "componentType": 5126,
      "count": 36558,
      "max": [
        0.999996542930603,
        0.9999992251396179,
        0.9999997019767761,
        1.0
      ],
      "min": [
        -0.9999643564224243,
        -0.9999894499778748,
        -0.9999867081642151,
        -1.0
      ],
      "type": "VEC4"
    },
    {
      "bufferView": 1,
      "byteOffset": 1086584,
      "componentType": 5126,
      "count": 36558,
      "max": [
        0.996749997138977,
        0.9967600107192993
      ],
      "min": [
        0.0019499999471008778,
        0.0033400000538676977
      ],
      "type": "VEC2"
    },
    {
      "bufferView": 0,
      "byteOffset": 2961348,
      "componentType": 5125,
      "count": 154521,
      "type": "SCALAR"
    },
    {
      "bufferView": 2,
      "byteOffset": 4137144,
      "componentType": 5126,
      "count": 18641,
      "max": [
        18.958667755126953,
        12.327681541442871,
        101.48687744140625
      ],
      "min": [
        -18.738290786743164,
        -14.915203094482422,
        57.37901306152344
      ],
      "type": "VEC3"
    },
    {
      "bufferView": 2,
      "byteOffset": 4360836,
      "componentType": 5126,
      "count": 18641,
      "max": [
        0.999974250793457,
        0.9999483823776245,
        0.9960144758224487
      ],
      "min": [
        -0.9999842643737793,
        -0.9999998807907104,
        -0.9988222122192383
      ],
      "type": "VEC3"
    },
    {
      "bufferView": 3,
      "byteOffset": 2681952,
      "componentType": 5126,
      "count": 18641,
      "max": [
        0.9999915361404419,
        0.9999646544456482,
        0.9892411828041077,
        1.0
      ],
      "min": [
        -0.9999983906745911,
        -0.9999469518661499,
        -0.9936147928237915,
        -1.0
      ],
      "type": "VEC4"
    },
    {
      "bufferView": 1,
      "byteOffset": 1379048,
      "componentType": 5126,
      "count": 18641,
      "max": [
        0.9865249991416931,
        0.987650990486145
      ],
      "min": [
        0.0,
        0.012893999926745892
      ],
      "type": "VEC2"
    },
    {
      "bufferView": 0,
      "byteOffset": 3579432,
      "componentType": 5125,
      "count": 102144,
      "type": "SCALAR"
    }
  ],
  "asset": {
    "extras": {
      "author": "kanesk06 (https://sketchfab.com/kanesk06)",
      "license": "CC-BY-4.0 (http://creativecommons.org/licenses/by/4.0/)",
      "source": "https://sketchfab.com/3d-models/male-tshirt-and-shorts-plain-texture-06b9009696a64e1f87b5400ddbab1cdd",
      "title": "Male Tshirt and Shorts - Plain Texture"
    },
    "generator": "Sketchfab-15.32.0",
    "version": "2.0"
  },
  "bufferViews": [
    {
      "buffer": 0,
      "byteLength": 3988008,
      "name": "floatBufferViews",
      "target": 34963
    },
    {
      "buffer": 0,
      "byteLength": 1528176,
      "byteOffset": 3988008,
      "byteStride": 8,
      "name": "floatBufferViews",
      "target": 34962
    },
    {
      "buffer": 0,
      "byteLength": 4584528,
      "byteOffset": 5516184,
      "byteStride": 12,
      "name": "floatBufferViews",
      "target": 34962
    },
    {
      "buffer": 0,
      "byteLength": 2980208,
      "byteOffset": 10100712,
      "byteStride": 16,
      "name": "floatBufferViews",
      "target": 34962
    }
  ],
  "buffers": [
    {
      "byteLength": 13080920,
      "uri": "scene.bin"
    }
  ],
  "extensionsUsed": [
    "KHR_materials_specular"
  ],
  "images": [
    {
      "uri": "textures/blinn2SG_baseColor.png"
    },
    {
      "uri": "textures/blinn2SG_metallicRoughness.png"
    },
    {
      "uri": "textures/blinn2SG_normal.png"
    },
    {
      "uri": "textures/blinn3SG_baseColor.png"
    },
    {
      "uri": "textures/blinn3SG_metallicRoughness.png"
    },
    {
      "uri": "textures/blinn3SG_normal.png"
    }
  ],
  "materials": [
    {
      "doubleSided": true,
      "extensions": {
        "KHR_materials_specular": {
          "specularColorFactor": [
            1.0,
            1.0,
            1.0
          ],
          "specularFactor": 0.0
        }
      },
      "name": "blinn1SG",
      "pbrMetallicRoughness": {
        "baseColorFactor": [
          0.0,
          0.0,
          0.0,
          1.0
        ],
        "metallicFactor": 0.0
      }
    },
    {
      "doubleSided": true,
      "name": "blinn2SG",
      "normalTexture": {
        "index": 2
      },
      "pbrMetallicRoughness": {
        "baseColorTexture": {
          "index": 0
        },
        "metallicRoughnessTexture": {
          "index": 1
        }
      }
    },
    {
      "doubleSided": true,
      "name": "blinn3SG",
      "normalTexture": {
        "index": 5
      },
      "pbrMetallicRoughness": {
        "baseColorTexture": {
          "index": 3
        },
        "metallicRoughnessTexture": {
          "index": 4
        }
      }
    }
  ],
  "meshes": [
    {
      "name": "Object_0",
      "primitives": [
        {
          "attributes": {
            "NORMAL": 1,
            "POSITION": 0,
            "TEXCOORD_0": 2
          },
          "indices": 3,
          "material": 0,
          "mode": 4
        }
      ]
    },
    {
      "name": "Object_1",
      "primitives": [
        {
          "attributes": {
            "NORMAL": 5,
            "POSITION": 4,
            "TANGENT": 6,
            "TEXCOORD_0": 7
          },
          "indices": 8,
          "material": 1,
          "mode": 4
        }
      ]
    },
    {
      "name": "Object_2",
      "primitives": [
        {
          "attributes": {
            "NORMAL": 10,
            "POSITION": 9,
            "TANGENT": 11,
            "TEXCOORD_0": 12
          },
          "indices": 13,
          "material": 1,
          "mode": 4
        }
      ]
    },
    {
      "name": "Object_3",
      "primitives": [
        {
          "attributes": {
            "NORMAL": 15,
            "POSITION": 14,
            "TANGENT": 16,
            "TEXCOORD_0": 17
          },
          "indices": 18,
          "material": 1,
          "mode": 4
        }
      ]
    },
    {
      "name": "Object_4",
      "primitives": [
        {
          "attributes": {
            "NORMAL": 20,
            "POSITION": 19,
            "TANGENT": 21,
            "TEXCOORD_0": 22
          },
          "indices": 23,
          "material": 2,
          "mode": 4
        }
      ]
    }
  ],
  "nodes": [
    {
      "children": [
        1
      ],
      "matrix": [
        1.0,
        0.0,
        0.0,
        0.0,
        0.0,
        2.220446049250313e-16,
        -1.0,
        0.0,
        0.0,
        1.0,
        2.220446049250313e-16,
        0.0,
        0.0,
        0.0,
        0.0,
        1.0
      ],
      "name": "Sketchfab_model"
    },
    {
      "children": [
        2,
        3,
        4,
        5,
        6
      ],
      "name": "male upload.obj.cleaner.materialmerger.gles"
    },
    {
      "mesh": 0,
      "name": "Object_2"
    },
    {
      "mesh": 1,
      "name": "Object_3"
    },
    {
      "mesh": 2,
      "name": "Object_4"
    },
    {
      "mesh": 3,
      "name": "Object_5"
    },
    {
      "mesh": 4,
      "name": "Object_6"
    }
  ],
  "samplers": [
    {
      "magFilter": 9729,
      "minFilter": 9987,
      "wrapS": 10497,
      "wrapT": 10497
    }
  ],
  "scene": 0,
  "scenes": [
    {
      "name": "Sketchfab_Scene",
      "nodes": [
        0
      ]
    }
  ],
  "textures": [
    {
      "sampler": 0,
      "source": 0
    },
    {
      "sampler": 0,
      "source": 1
    },
    {
      "sampler": 0,
      "source": 2
    },
    {
      "sampler": 0,
      "source": 3
    },
    {
      "sampler": 0,
      "source": 4
    },
    {
      "sampler": 0,
      "source": 5
    }
  ]
}
